<?xml version="1.0" encoding="UTF-8"?>
<svg width="212px" height="154px" viewBox="0 0 212 154" version="1.1" xmlns="http://www.w3.org/2000/svg" xmlns:xlink="http://www.w3.org/1999/xlink">
    <title>88742321-21FC-4427-87E3-87619BF2046F</title>
    <g id="Icons-&amp;-Illustrations" stroke="none" stroke-width="1" fill="none" fill-rule="evenodd">
        <g id="General---Illustrations---Examples---nav" transform="translate(-1066.000000, -1000.000000)">
            <g id="ill-/-📱track-2-/-messages" transform="translate(1067.000000, 1001.000000)">
                <g id="Bounds" opacity="0" stroke="#F5F5F5">
                    <rect x="20" y="16" width="170" height="120"></rect>
                    <rect x="0" y="0" width="210" height="152"></rect>
                </g>
                <g id="Mail" transform="translate(56.000000, 21.000000)">
                    <path d="M1,40 L43.9171429,79.0625121 C46.7234286,81.6458293 51.2748571,81.6458293 54.0828571,79.0625121 L97,40 L50.7504488,1.07329441 C50.0117602,0.451564874 48.9343626,0.44631848 48.1896541,1.06082461 L1,40 L1,40 Z" id="Path" fill="#F5F5F5" fill-rule="nonzero"></path>
                    <path d="M0.663442292,40.3697687 L43.5805851,79.4322808 C46.5761586,82.189857 51.4220102,82.189857 54.4213824,79.4304804 L97.3365577,40.3697687 C97.5602189,40.1661958 97.5533547,39.8122108 97.3219697,39.6174617 L51.0724185,0.69075616 C50.1490578,-0.0864057635 48.8023107,-0.0929637562 47.8714252,0.675168905 L0.681771029,39.6143443 C0.446989068,39.8080778 0.438332109,40.164877 0.663442292,40.3697687 Z M1.76315815,40.0185164 L48.5078831,1.44648031 C49.0664144,0.985600716 49.8744627,0.989535511 50.4284791,1.45583267 L96.2410155,40.0147175 L53.7462994,78.6927434 C51.127704,81.1018016 46.8706985,81.1018016 44.25578,78.6946468 L1.76315815,40.0185164 Z" id="Path" fill="#E1E1E1" fill-rule="nonzero"></path>
                    <rect id="Rectangle" fill="#4E6066" opacity="0.100000001" x="12" y="10" width="80" height="99" rx="1"></rect>
                    <rect id="Rectangle" fill="#FFFFFF" x="9" y="10" width="80" height="99" rx="1"></rect>
                    <path d="M10,9.5 L88,9.5 C88.8284271,9.5 89.5,10.1715729 89.5,11 L89.5,108 C89.5,108.828427 88.8284271,109.5 88,109.5 L10,109.5 C9.17157288,109.5 8.5,108.828427 8.5,108 L8.5,11 C8.5,10.1715729 9.17157288,9.5 10,9.5 Z M10,10.5 C9.72385763,10.5 9.5,10.7238576 9.5,11 L9.5,108 C9.5,108.276142 9.72385763,108.5 10,108.5 L88,108.5 C88.2761424,108.5 88.5,108.276142 88.5,108 L88.5,11 C88.5,10.7238576 88.2761424,10.5 88,10.5 L10,10.5 Z" id="Rectangle" fill="#4E6066" fill-rule="nonzero"></path>
                    <rect id="Rectangle" fill="#F5F5F5" x="17" y="54" width="64" height="6" rx="1"></rect>
                    <rect id="Rectangle" fill="#E1E1E1" x="46" y="22" width="35" height="3" rx="1"></rect>
                    <rect id="Rectangle" fill="#E1E1E1" x="46" y="28" width="24" height="3" rx="1"></rect>
                    <rect id="Rectangle" fill="#F5F5F5" x="46" y="34" width="31" height="3" rx="1"></rect>
                    <rect id="Rectangle" fill="#E63934" x="46" y="40" width="13" height="3" rx="1"></rect>
                    <rect id="Rectangle" fill="#F5F5F5" x="17" y="64" width="64" height="3" rx="1"></rect>
                    <path d="M1,40 L1,109 C1,109.552285 1.44771525,110 2,110 L49,110 L49,110 L96,110 C96.5522847,110 97,109.552285 97,109 L97,40 L97,40 L49,82 L1,40 Z" id="Path" fill="#FFFFFF" fill-rule="nonzero"></path>
                    <path d="M49,81.3356159 L1.3292523,39.6237117 C1.00596086,39.3408316 0.5,39.5704206 0.5,40 L0.5,109 C0.5,109.828427 1.17157288,110.5 2,110.5 L96,110.5 C96.8284271,110.5 97.5,109.828427 97.5,109 L97.5,40 C97.5,39.5704206 96.9940391,39.3408316 96.6707477,39.6237117 L49,81.3356159 Z M1.5,41.1018841 L48.6707477,82.3762883 C48.8592607,82.5412372 49.1407393,82.5412372 49.3292523,82.3762883 L96.5,41.1018841 L96.5,109 C96.5,109.276142 96.2761424,109.5 96,109.5 L2,109.5 C1.72385763,109.5 1.5,109.276142 1.5,109 L1.5,41.1018841 Z" id="Path" fill="#4E6066" fill-rule="nonzero"></path>
                    <path d="M1.95559621,69.8697687 L43.9171429,108.062512 L43.9171429,108.062512 C46.7234286,110.645829 51.2748571,110.645829 54.0828571,108.062512 L96.0444038,69.8697687 C96.2486214,69.683893 96.2634905,69.3676599 96.0776148,69.1634423 C95.9828615,69.0593389 95.8486144,69 95.7078461,69 L2.29215392,69 C2.01601154,69 1.79215392,69.2238576 1.79215392,69.5 C1.79215392,69.6407683 1.85149277,69.7750154 1.95559621,69.8697687 Z" id="Path" fill="#FFFFFF" fill-rule="nonzero" transform="translate(49.000000, 89.500000) scale(1, -1) translate(-49.000000, -89.500000) "></path>
                    <path d="M43.5805851,108.432281 C46.5761586,111.189857 51.4220102,111.189857 54.4213824,108.43048 L96.3809615,70.2395374 C96.7893968,69.8677861 96.8191349,69.2353198 96.4473835,68.8268846 C96.2578769,68.6186777 95.9893827,68.5 95.7078461,68.5 L2.29215392,68.5 C1.73986917,68.5 1.29215392,68.9477153 1.29215392,69.5 C1.29215392,69.7815366 1.41083163,70.0500308 1.6190385,70.2395374 L43.5805851,108.432281 Z M2.29215392,69.5 L95.7078461,69.5 L53.7462994,107.692743 C51.127704,110.101802 46.8706985,110.101802 44.25578,107.694647 L2.29215392,69.5 Z" id="Path" fill="#4E6066" fill-rule="nonzero" transform="translate(49.000003, 89.500119) scale(1, -1) translate(-49.000003, -89.500119) "></path>
                </g>
                <circle id="Oval" fill="#00486D" cx="145" cy="47" r="11"></circle>
                <text id="0" font-family="Flama-Medium, Flama" font-size="12" font-weight="400" fill="#FFFFFF">
                    <tspan x="141.424" y="51">0</tspan>
                </text>
                <g id="Page" transform="translate(72.000000, 43.000000)" fill="#F5F5F5">
                    <rect id="Rectangle" x="0" y="0" width="25" height="26" rx="1"></rect>
                </g>
            </g>
        </g>
    </g>
</svg>