<?xml version="1.0" encoding="UTF-8"?>
<svg width="24px" height="24px" viewBox="0 0 24 24" version="1.1" xmlns="http://www.w3.org/2000/svg" xmlns:xlink="http://www.w3.org/1999/xlink">
    <title>ic/products/transact</title>
    <g id="ic/products/transact" stroke="none" stroke-width="1" fill="none" fill-rule="evenodd">
        <g id="1)-Transact---1.5px-(24px)" fill="#009DE0">
            <path d="M14.63368,17.95482 L13.57433,16.89546 L19.18617,11.28363 C19.3266234,11.143104 19.5171626,11.0641512 19.715845,11.0641512 C19.9145274,11.0641512 20.1050666,11.143104 20.24552,11.28363 L22.22669,13.26382 L22.22669,3.77061 L12.79494,3.77061 L15.42966,6.40533 L14.37031,7.46469 L10.58064,3.675 C10.3604067,3.43234348 10.29178,3.08808758 10.40213,2.77953 C10.5290817,2.47197047 10.8292702,2.27158803 11.162,2.27229811 L22.9261,2.27229811 C23.3590481,2.29165901 23.705641,2.63825189 23.725,3.0712 L23.725,14.89772 C23.7088873,15.2249001 23.5139079,15.5166196 23.21776,15.65663 C22.9106271,15.7836308 22.5572369,15.713184 22.32228,15.47812 L19.71585,12.87265 L14.63368,17.95482 Z M10.58723,17.85591 L16.10792,12.33521 C16.3608699,12.0807819 16.3608699,11.6698381 16.10792,11.41541 L10.58723,5.89472 C10.3326444,5.6421522 9.92201557,5.6421522 9.66743,5.89472 L4.14673,11.41541 L1.38617,8.65528 C1.2000095,8.46892797 0.919871487,8.41317474 0.676546766,8.51405036 C0.433222045,8.61492598 0.274703402,8.852534 0.274999585,9.11594 L0.274999585,20.97855 C0.274999585,21.3922957 0.610414262,21.7277012 1.02416,21.7277012 L12.88716,21.7277012 C13.1505789,21.7282138 13.3883075,21.5698208 13.4892796,21.3265218 C13.5902518,21.0832228 13.5345349,20.8030462 13.34816,20.61689 L10.58723,17.85591 Z" id="Shape"></path>
        </g>
    </g>
</svg>