<svg width="300" height="136" viewBox="0 0 300 136" fill="none" xmlns="http://www.w3.org/2000/svg">
<rect x="96.5047" y="62.0374" width="106.991" height="27.4332" rx="2" fill="white"/>
<rect x="96.5047" y="95.5669" width="106.991" height="27.4332" rx="2" fill="white"/>
<rect opacity="0.1" x="96.5047" y="30.54" width="106.991" height="27.4332" rx="0.9" fill="#4E6066"/>
<rect x="96.5047" y="28.5081" width="106.991" height="27.4332" rx="0.9" fill="white"/>
<path fill-rule="evenodd" clip-rule="evenodd" d="M202.587 28H97.4131C96.6327 28 96 28.6369 96 29.4225V55.0267C96 55.8123 96.6327 56.4492 97.4131 56.4492H202.587C203.367 56.4492 204 55.8123 204 55.0267V29.4225C204 28.6369 203.367 28 202.587 28ZM97.0093 29.4225C97.0093 29.198 97.1901 29.016 97.4131 29.016H202.587C202.81 29.016 202.991 29.198 202.991 29.4225V55.0267C202.991 55.2512 202.81 55.4332 202.587 55.4332H97.4131C97.1901 55.4332 97.0093 55.2512 97.0093 55.0267V29.4225Z" fill="#4E6066"/>
<rect x="120.729" y="38.6685" width="42.3925" height="7.1123" rx="1" fill="#F5F5F5"/>
<ellipse cx="109.122" cy="42.2246" rx="6.56075" ry="6.60428" fill="#00486D"/>
<rect width="7.06542" height="7.1123" rx="1" transform="matrix(-1 0 0 1 198.449 38.6685)" fill="#E63934"/>
<path fill-rule="evenodd" clip-rule="evenodd" d="M202.587 61.5293H97.4131C96.6327 61.5293 96 62.1662 96 62.9518V88.556C96 89.3416 96.6327 89.9785 97.4131 89.9785H202.587C203.367 89.9785 204 89.3416 204 88.556V62.9518C204 62.1662 203.367 61.5293 202.587 61.5293ZM97.0093 62.9518C97.0093 62.7273 97.1901 62.5453 97.4131 62.5453H202.587C202.81 62.5453 202.991 62.7273 202.991 62.9518V88.556C202.991 88.7805 202.81 88.9625 202.587 88.9625H97.4131C97.1901 88.9625 97.0093 88.7805 97.0093 88.556V62.9518Z" fill="#E1E1E1"/>
<rect x="120.729" y="72.1978" width="42.3925" height="7.1123" rx="1" fill="#F5F5F5"/>
<ellipse cx="109.122" cy="75.7539" rx="6.56075" ry="6.60428" fill="#E1E1E1"/>
<rect width="7.06542" height="7.1123" rx="1" transform="matrix(-1 0 0 1 198.449 72.1978)" fill="#F5F5F5"/>
<path fill-rule="evenodd" clip-rule="evenodd" d="M202.587 95.0588H97.4131C96.6327 95.0588 96 95.6957 96 96.4813V122.086C96 122.871 96.6327 123.508 97.4131 123.508H202.587C203.367 123.508 204 122.871 204 122.086V96.4813C204 95.6957 203.367 95.0588 202.587 95.0588ZM97.0093 96.4813C97.0093 96.2568 97.1901 96.0749 97.4131 96.0749H202.587C202.81 96.0749 202.991 96.2568 202.991 96.4813V122.086C202.991 122.31 202.81 122.492 202.587 122.492H97.4131C97.1901 122.492 97.0093 122.31 97.0093 122.086V96.4813Z" fill="#E1E1E1"/>
<rect x="120.729" y="105.727" width="42.3925" height="7.1123" rx="1" fill="#F5F5F5"/>
<ellipse cx="109.122" cy="109.283" rx="6.56075" ry="6.60428" fill="#E1E1E1"/>
<rect width="7.06542" height="7.1123" rx="1" transform="matrix(-1 0 0 1 198.449 105.727)" fill="#F5F5F5"/>
</svg>
