<svg width="23" height="24" viewBox="0 0 23 24" fill="none" xmlns="http://www.w3.org/2000/svg">
<circle cx="8.27329" cy="11.0692" r="1.52573" fill="#003F6C"/>
<circle cx="13.2992" cy="11.0692" r="1.52573" fill="#003F6C"/>
<circle cx="18.3358" cy="11.0692" r="1.52573" fill="#003F6C"/>
<path d="M22.9843 10.2931C22.9843 14.1555 20.6091 17.521 17.0956 19.2818C14.7733 22.1973 11.591 24 11.591 24L10.893 21.2785C10.893 21.2785 10.804 20.8958 10.7241 20.5635C4.73527 20.2096 0 15.7466 0 10.2931C0 4.60837 5.14522 0 11.4922 0C17.8391 0 22.9843 4.60837 22.9843 10.2931Z" fill="#003F6C"/>
<rect x="5.24072" y="6.87598" width="12.728" height="1.49741" rx="0.748706" fill="white"/>
<rect x="5.24072" y="9.87061" width="10.4823" height="1.49741" rx="0.748706" fill="white"/>
<rect x="5.24072" y="12.8657" width="7.48595" height="1.49741" rx="0.748706" fill="white"/>
</svg>
