<?xml version="1.0" encoding="UTF-8"?>
<svg width="24px" height="24px" viewBox="0 0 24 24" version="1.1" xmlns="http://www.w3.org/2000/svg" xmlns:xlink="http://www.w3.org/1999/xlink">
    <title>ic/beneficiaries</title>
    <g id="ic/beneficiaries" stroke="none" stroke-width="1" fill="none" fill-rule="evenodd">
        <path d="M16.4,2.05 C19.4651804,2.05 21.95,4.53481964 21.95,7.6 C21.95,9.17957762 21.2901203,10.6050321 20.2309922,11.6157322 C22.2685234,13.0218747 23.5798153,15.4996205 23.6694163,18.2520331 L23.6743208,18.5536685 L23.6743208,19.6 C23.6743208,20.4084835 23.0553268,21.0723932 22.2654024,21.1436657 L22.1243208,21.15 L10.8,21.15 L10.699,21.145 L10.6994566,21.15 L1.64,21.15 C0.917481598,21.15 0.323717558,20.598737 0.256363029,19.8938663 L0.25,19.76 L0.25,18.9229348 C0.25,16.6715866 1.25245654,14.6151341 2.86524302,13.3956177 C2.03986003,12.5662795 1.53,11.4226818 1.53,10.16 C1.53,7.625013 3.585013,5.57 6.12,5.57 C8.654987,5.57 10.71,7.625013 10.71,10.16 C10.71,11.4019157 10.2167724,12.5286319 9.41551708,13.3549489 C9.75635543,13.6038955 10.07216,13.8934211 10.3587877,14.216187 C10.9003207,13.2448847 11.6243558,12.4041275 12.4894684,11.7604686 L12.621617,11.6652894 C11.5317759,10.651904 10.85,9.20557067 10.85,7.6 C10.85,4.53481964 13.3348196,2.05 16.4,2.05 Z M8.11711945,14.2924854 L7.95356998,14.3691328 C7.39197054,14.6141175 6.7718538,14.75 6.12,14.75 C5.42547229,14.75 4.76697301,14.5957439 4.1768938,14.3196234 L4.36085922,14.2162529 C2.85607137,15.0072472 1.83430834,16.7200935 1.75497495,18.6770879 L1.75,18.9229348 L1.75,19.649 L9.252,19.649 L9.25,19.6 L9.25,18.5536685 C9.25,17.5914991 9.39942091,16.6587383 9.67768907,15.7887818 C9.26273493,15.1564738 8.72691166,14.643335 8.11711945,14.2924854 Z M18.9017179,12.553398 L18.8407494,12.5858916 C18.1041552,12.9471576 17.2757658,13.15 16.4,13.15 C15.5258037,13.15 14.698814,12.947884 13.9632116,12.5878324 L14.1138329,12.5043486 C12.1609814,13.5308682 10.8433093,15.7523401 10.7547574,18.2815451 L10.75,18.5536685 L10.75,19.6 C10.75,19.6184095 10.7599492,19.6344952 10.774764,19.6431735 L10.8,19.65 L22.1243208,19.65 C22.1427303,19.65 22.158816,19.6400508 22.1674943,19.625236 L22.1743208,19.6 L22.1743208,18.5536685 C22.1743208,15.9504171 20.8712254,13.6369246 18.9017179,12.553398 Z M6.12,7.07 C4.41344012,7.07 3.03,8.45344012 3.03,10.16 C3.03,11.8665599 4.41344012,13.25 6.12,13.25 C7.82655988,13.25 9.21,11.8665599 9.21,10.16 C9.21,8.45344012 7.82655988,7.07 6.12,7.07 Z M16.4,3.55 C14.1632468,3.55 12.35,5.36324676 12.35,7.6 C12.35,9.83675324 14.1632468,11.65 16.4,11.65 C18.6367532,11.65 20.45,9.83675324 20.45,7.6 C20.45,5.36324676 18.6367532,3.55 16.4,3.55 Z" id="fill" fill="#7C7C7C" fill-rule="nonzero"></path>
    </g>
</svg>