<?xml version="1.0" encoding="UTF-8"?>
<svg width="24px" height="24px" viewBox="0 0 24 24" version="1.1" xmlns="http://www.w3.org/2000/svg" xmlns:xlink="http://www.w3.org/1999/xlink">
    <title>ic/taptopay</title>
    <g id="ic/taptopay" stroke="none" stroke-width="1" fill="none" fill-rule="evenodd">
        <path d="M15.5863889,3.34128161 C15.9107401,3.08365947 16.3825227,3.13775407 16.6401449,3.46210527 C18.2769027,5.52281466 19.081426,8.42084492 19.081426,12.1363724 C19.081426,15.8522472 18.2767487,18.747339 16.6393591,20.8017362 C16.3811915,21.1256534 15.9093185,21.1789541 15.5854013,20.9207865 C15.2614841,20.6626189 15.2081834,20.1907459 15.466351,19.8668287 C16.867056,18.1093945 17.581426,15.5392131 17.581426,12.1363724 C17.581426,8.73318454 16.8669021,6.15934747 15.4655652,4.39503758 C15.2079431,4.07068638 15.2620377,3.59890376 15.5863889,3.34128161 Z M12.1311247,5.15774578 C12.4590064,4.9046323 12.9299961,4.96524396 13.1831096,5.29312571 C14.4449681,6.92773005 15.0618844,9.21417168 15.0618844,12.1352734 C15.0618844,15.056721 14.4448213,17.3409509 13.1823428,18.9707198 C12.9286817,19.298178 12.4575913,19.3580024 12.1301331,19.1043413 C11.8026748,18.8506801 11.7428504,18.3795898 11.9965116,18.0521316 C13.0306427,16.7171427 13.5618844,14.7506045 13.5618844,12.1352734 C13.5618844,9.51959653 13.0304959,7.55014136 11.9957447,6.2097307 C11.7426313,5.88184895 11.8032429,5.41085926 12.1311247,5.15774578 Z M8.51546752,6.99290992 C8.8365521,6.73122774 9.30897791,6.77938289 9.57066009,7.10046747 C10.5581137,8.31207503 11.0381892,9.99741202 11.0381892,12.1341744 C11.0381892,14.2712851 10.5579531,15.9551543 9.56985758,17.1633694 C9.30763251,17.4840107 8.8351259,17.5313665 8.51448453,17.2691414 C8.19384317,17.0069164 8.14648741,16.5344097 8.40871248,16.2137684 C9.15248918,15.3042994 9.53818916,13.9519056 9.53818916,12.1341744 C9.53818916,10.316095 9.15232857,8.96150565 8.40790997,8.0481025 C8.14622778,7.72701792 8.19438294,7.25459211 8.51546752,6.99290992 Z M5.03161373,8.8731702 C5.31917326,8.57503869 5.79396965,8.56646842 6.09210116,8.85402794 C6.91173263,9.64459465 7.31343767,10.7531544 7.31343767,12.1314269 C7.31343767,13.5100502 6.91150231,14.6179089 6.09116885,15.4064246 C5.79254156,15.6934693 5.31776067,15.6840797 5.03071604,15.3854524 C4.74367141,15.0868251 4.75306101,14.6120442 5.05168829,14.3249996 C5.55403364,13.8421384 5.81343767,13.1271403 5.81343767,12.1314269 C5.81343767,11.1353629 5.55380331,10.4188665 5.05075599,9.93365762 C4.75262448,9.64609809 4.74405421,9.1713017 5.03161373,8.8731702 Z" id="fill" fill="#009DE0" fill-rule="nonzero"></path>
    </g>
</svg>