<?xml version="1.0" encoding="UTF-8"?>
<svg width="24px" height="24px" viewBox="0 0 24 24" version="1.1" xmlns="http://www.w3.org/2000/svg"
	xmlns:xlink="http://www.w3.org/1999/xlink">
	<title>ic/document</title>
	<g id="ic/document" stroke="none" stroke-width="1" fill="none" fill-rule="evenodd">
		<path
			d="M15,1.25 C15.2225849,1.25 15.4336706,1.34886726 15.576166,1.5198617 L15.576166,1.5198617 L20.576166,7.5198617 C20.6884878,7.65464795 20.75,7.82454762 20.75,8 L20.75,8 L20.75,22 C20.75,22.4142136 20.4142136,22.75 20,22.75 L20,22.75 L4,22.75 C3.58578644,22.75 3.25,22.4142136 3.25,22 L3.25,22 L3.25,2 C3.25,1.58578644 3.58578644,1.25 4,1.25 L4,1.25 Z M14.25,2.75 L4.75,2.75 L4.75,21.25 L19.25,21.25 L19.25,8.75 L15,8.75 C14.6203042,8.75 14.306509,8.46784612 14.2568466,8.10177056 L14.25,8 L14.25,2.75 Z M17,16.25 C17.4142136,16.25 17.75,16.5857864 17.75,17 C17.75,17.3796958 17.4678461,17.693491 17.1017706,17.7431534 L17,17.75 L7,17.75 C6.58578644,17.75 6.25,17.4142136 6.25,17 C6.25,16.6203042 6.53215388,16.306509 6.89822944,16.2568466 L7,16.25 L17,16.25 Z M17,12.25 C17.4142136,12.25 17.75,12.5857864 17.75,13 C17.75,13.3796958 17.4678461,13.693491 17.1017706,13.7431534 L17,13.75 L7,13.75 C6.58578644,13.75 6.25,13.4142136 6.25,13 C6.25,12.6203042 6.53215388,12.306509 6.89822944,12.2568466 L7,12.25 L17,12.25 Z M15.75,4.072 L15.75,7.25 L18.399,7.25 L15.75,4.072 Z"
			id="fill" fill="#FFFFFF" fill-rule="nonzero" />
	</g>
</svg>