<?xml version="1.0" encoding="UTF-8"?>
<svg width="182px" height="132px" viewBox="0 0 182 132" version="1.1" xmlns="http://www.w3.org/2000/svg" xmlns:xlink="http://www.w3.org/1999/xlink">
    <title>50937B0C-E976-472F-B9D5-326334381A65</title>
    <g id="Authorisation-card" stroke="none" stroke-width="1" fill="none" fill-rule="evenodd">
        <g id="Dashboard---preferred---add-users---Recent-transaction-+-Pending-payment-graph-and-favourites-card-_Empty-state" transform="translate(-992.000000, -719.000000)">
            <g id="ill-/-📱track-2-/-history" transform="translate(993.000000, 720.000000)">
                <g id="Bounds" opacity="0" stroke="#F5F5F5">
                    <rect x="17.1428571" y="13.7142857" width="145.714286" height="102.857143"></rect>
                    <rect x="0" y="0" width="180" height="130.285714"></rect>
                </g>
                <g id="Group-2" transform="translate(49.285714, 80.571429)">
                    <path d="M81.428,0.428571429 L81.4285714,16.2 C81.4285714,16.9574191 80.8145619,17.5714286 80.0571429,17.5714286 L1.37142857,17.5714286 C0.614009486,17.5714286 0,16.9574191 0,16.2 L0,0.428571429 L0.857,0.428571429 L0.857142857,16.2 C0.857142857,16.4840322 1.08739641,16.7142857 1.37142857,16.7142857 L80.0571429,16.7142857 C80.341175,16.7142857 80.5714286,16.4840322 80.5714286,16.2 L80.571,0.428571429 L81.428,0.428571429 Z" id="Combined-Shape" fill="#E1E1E1" fill-rule="nonzero"></path>
                    <rect id="Rectangle" fill="#E1E1E1" x="3.85714286" y="0" width="41.1428571" height="6" rx="1.1"></rect>
                    <rect id="Rectangle" fill="#F5F5F5" x="3.85714286" y="8.57142857" width="30" height="3.42857143" rx="1.1"></rect>
                    <rect id="Rectangle" fill="#F5F5F5" x="51.8571429" y="5.14285714" width="18" height="3.42857143" rx="1.1"></rect>
                    <rect id="Rectangle" fill="#F5F5F5" transform="translate(74.142857, 6.857143) scale(-1, 1) translate(-74.142857, -6.857143) " x="72.4285714" y="5.14285714" width="3.42857143" height="3.42857143" rx="1.1"></rect>
                </g>
                <g id="Group-3" transform="translate(39.857143, 60.000000)">
                    <path d="M101.142,0.428571429 L101.142857,19.6285714 C101.142857,20.3859905 100.528848,21 99.7714286,21 L1.37142857,21 C0.614009486,21 0,20.3859905 0,19.6285714 L0,0.428571429 L0.857,0.428571429 L0.857142857,19.6285714 C0.857142857,19.9126036 1.08739641,20.1428571 1.37142857,20.1428571 L99.7714286,20.1428571 C100.055461,20.1428571 100.285714,19.9126036 100.285714,19.6285714 L100.285,0.428571429 L101.142,0.428571429 Z" id="Combined-Shape" fill="#4E6066" fill-rule="nonzero"></path>
                    <rect id="Rectangle" fill="#E1E1E1" x="5.57142857" y="0" width="52.2857143" height="6.85714286" rx="1.1"></rect>
                    <rect id="Rectangle" fill="#F5F5F5" x="5.57142857" y="10.2857143" width="38.5714286" height="5.14285714" rx="1.1"></rect>
                    <rect id="Rectangle" fill="#F5F5F5" x="64.7142857" y="6" width="22.2857143" height="5.14285714" rx="1.1"></rect>
                    <rect id="Rectangle" fill="#F5F5F5" transform="translate(93.000000, 8.571429) scale(-1, 1) translate(-93.000000, -8.571429) " x="90.4285714" y="6" width="5.14285714" height="5.14285714" rx="1.1"></rect>
                </g>
                <g id="Group" transform="translate(33.857143, 31.285714)">
                    <rect id="Rectangle" x="0.428571429" y="0.428571429" width="111.428571" height="28.2857143" rx="1.1"></rect>
                    <path d="M1.37142857,0 L110.914286,0 C111.671705,0 112.285714,0.614009486 112.285714,1.37142857 L112.285714,27.7714286 C112.285714,28.5288477 111.671705,29.1428571 110.914286,29.1428571 L1.37142857,29.1428571 C0.614009486,29.1428571 0,28.5288477 0,27.7714286 L0,1.37142857 C0,0.614009486 0.614009486,0 1.37142857,0 Z M1.37142857,0.857142857 C1.08739641,0.857142857 0.857142857,1.08739641 0.857142857,1.37142857 L0.857142857,27.7714286 C0.857142857,28.0554607 1.08739641,28.2857143 1.37142857,28.2857143 L110.914286,28.2857143 C111.198318,28.2857143 111.428571,28.0554607 111.428571,27.7714286 L111.428571,1.37142857 C111.428571,1.08739641 111.198318,0.857142857 110.914286,0.857142857 L1.37142857,0.857142857 Z" id="Rectangle" fill="#4E6066" fill-rule="nonzero"></path>
                    <rect id="Rectangle" fill="#00486D" x="6.42857143" y="6.42857143" width="57.4285714" height="7.71428571" rx="1.1"></rect>
                    <rect id="Rectangle" fill="#F5F5F5" x="6.42857143" y="17.5714286" width="42.8571429" height="6" rx="1.1"></rect>
                    <rect id="Rectangle" fill="#F5F5F5" x="71.5714286" y="11.5714286" width="25.7142857" height="6" rx="1.1"></rect>
                    <rect id="Rectangle" fill="#E63934" transform="translate(103.714286, 14.571429) scale(-1, 1) translate(-103.714286, -14.571429) " x="100.714286" y="11.5714286" width="6" height="6" rx="1.1"></rect>
                </g>
            </g>
        </g>
    </g>
</svg>