<?xml version="1.0" encoding="UTF-8"?>
<svg width="24px" height="24px" viewBox="0 0 24 24" version="1.1" xmlns="http://www.w3.org/2000/svg" xmlns:xlink="http://www.w3.org/1999/xlink">
    <title>s</title>
    <defs>
        <filter color-interpolation-filters="auto" id="filter-1">
            <feColorMatrix in="SourceGraphic" type="matrix" values="0 0 0 0 1.000000 0 0 0 0 1.000000 0 0 0 0 1.000000 0 0 0 1.000000 0"></feColorMatrix>
        </filter>
    </defs>
    <g id="Icons" stroke="none" stroke-width="1" fill="none" fill-rule="evenodd">
        <g id="ic/home" filter="url(#filter-1)">
            <g>
                <path d="M11.5331073,1.41304921 C11.8064089,1.19565026 12.1935911,1.19565026 12.4668927,1.41304921 L12.4668927,1.41304921 L23.4668927,10.1630492 C23.7910566,10.4209069 23.8448085,10.8927287 23.5869508,11.2168927 C23.3290931,11.5410566 22.8572713,11.5948085 22.5331073,11.3369508 L22.5331073,11.3369508 L20.749971,9.918 L20.75,22 C20.75,22.3796958 20.4678461,22.693491 20.1017706,22.7431534 L20,22.75 L15,22.75 C14.5857864,22.75 14.25,22.4142136 14.25,22 L14.25,22 L14.25,16.75 L9.75,16.75 L9.75,22 C9.75,22.4142136 9.41421356,22.75 9,22.75 L9,22.75 L4,22.75 C3.58578644,22.75 3.25,22.4142136 3.25,22 L3.25,22 L3.24997104,9.917 L1.46689267,11.3369508 C1.17219816,11.5713669 0.755472381,11.5482544 0.488407241,11.2985656 L0.413049209,11.2168927 C0.155191506,10.8927287 0.208943355,10.4209069 0.533107326,10.1630492 L0.533107326,10.1630492 Z M12,2.95834269 L4.74997104,8.724 L4.75,21.25 L8.25,21.25 L8.25,16 C8.25,15.5857864 8.58578644,15.25 9,15.25 L9,15.25 L15,15.25 C15.4142136,15.25 15.75,15.5857864 15.75,16 L15.75,16 L15.75,21.25 L19.25,21.25 L19.249971,8.725 L12,2.95834269 Z" id="fill" fill="#009DE0"></path>
            </g>
        </g>
    </g>
</svg>