<?xml version="1.0" encoding="UTF-8"?>
<svg version="1.1" width="24px" height="24px" viewBox="0 0 24.0 24.0" xmlns="http://www.w3.org/2000/svg" xmlns:xlink="http://www.w3.org/1999/xlink">
	<defs>
		<clipPath id="i0">
			<path d="M2.56,0 L2.56,0.97 C2.56,1.15 2.53333333,1.31 2.48,1.45 C2.58666667,1.36333333 2.73,1.29 2.91,1.23 L3.84,0.93 L4.14,1.86 L3.22,2.16 C3.06,2.20666667 2.91,2.23 2.77,2.23 L2.73,2.23 C2.86333333,2.31666667 2.98,2.43 3.08,2.57 L3.65,3.36 L2.86,3.93 L2.29,3.15 C2.19,2.99666667 2.12,2.85666667 2.08,2.73 C2.04,2.85666667 1.96666667,2.99333333 1.86,3.14 L1.28,3.93 L0.49,3.36 L1.07,2.57 C1.17666667,2.43666667 1.29,2.32666667 1.41,2.24 L1.38,2.24 C1.23333333,2.24 1.08333333,2.21333333 0.93,2.16 L0,1.86 L0.31,0.93 L1.23,1.23 C1.39666667,1.28333333 1.54,1.36 1.66,1.46 C1.60666667,1.31333333 1.58,1.15 1.58,0.97 L1.58,0 L2.56,0 Z"></path>
		</clipPath>
		<clipPath id="i1">
			<path d="M2.56,0 L2.56,0.97 C2.56,1.15 2.53333333,1.31 2.48,1.45 C2.58666667,1.36333333 2.73,1.29 2.91,1.23 L3.84,0.93 L4.14,1.86 L3.22,2.16 C3.06,2.20666667 2.91,2.23 2.77,2.23 L2.73,2.23 C2.86333333,2.31666667 2.98,2.43 3.08,2.57 L3.65,3.36 L2.86,3.93 L2.29,3.15 C2.19,2.99666667 2.12,2.85666667 2.08,2.73 C2.04,2.85666667 1.96666667,2.99333333 1.86,3.14 L1.28,3.93 L0.49,3.36 L1.07,2.57 C1.17666667,2.43666667 1.29,2.32666667 1.41,2.24 L1.38,2.24 C1.23333333,2.24 1.08333333,2.21333333 0.93,2.16 L0,1.86 L0.31,0.93 L1.23,1.23 C1.39666667,1.28333333 1.54,1.36 1.66,1.46 C1.60666667,1.31333333 1.58,1.15 1.58,0.97 L1.58,0 L2.56,0 Z"></path>
		</clipPath>
		<clipPath id="i2">
			<path d="M2.56,0 L2.56,0.97 C2.56,1.15 2.53333333,1.31 2.48,1.45 C2.58666667,1.36333333 2.73,1.29 2.91,1.23 L3.84,0.93 L4.14,1.86 L3.22,2.16 C3.06,2.20666667 2.91,2.23 2.77,2.23 L2.73,2.23 C2.86333333,2.31666667 2.98,2.43 3.08,2.57 L3.65,3.36 L2.86,3.93 L2.29,3.15 C2.19,2.99666667 2.12,2.85666667 2.08,2.73 C2.04,2.85666667 1.96666667,2.99333333 1.86,3.14 L1.28,3.93 L0.49,3.36 L1.07,2.57 C1.17666667,2.43666667 1.29,2.32666667 1.41,2.24 L1.38,2.24 C1.23333333,2.24 1.08333333,2.21333333 0.93,2.16 L0,1.86 L0.31,0.93 L1.23,1.23 C1.39666667,1.28333333 1.54,1.36 1.66,1.46 C1.60666667,1.31333333 1.58,1.15 1.58,0.97 L1.58,0 L2.56,0 Z"></path>
		</clipPath>
	</defs>
	<g transform="translate(3.0 10.0)">
		<g clip-path="url(#i0)">
			<polygon points="0,0 4.14,0 4.14,3.93 0,3.93 0,0" stroke="none" fill="#009DE0"></polygon>
		</g>
		<g transform="translate(6.699999999998909 1.13464793116691e-13)">
			<g clip-path="url(#i1)">
				<polygon points="0,0 4.14,0 4.14,3.93 0,3.93 0,0" stroke="none" fill="#009DE0"></polygon>
			</g>
		</g>
		<g transform="translate(13.399999999999636 0.0)">
			<g clip-path="url(#i2)">
				<polygon points="0,0 4.14,0 4.14,3.93 0,3.93 0,0" stroke="none" fill="#009DE0"></polygon>
			</g>
		</g>
	</g>
	<g transform="translate(0.9999999999999165 1.0)">
		<polygon points="0,0 22.1052632,0 22.1052632,22 0,22 0,0 0,0" stroke="#009DE0" stroke-width="1" fill="none" stroke-linejoin="round"></polygon>
	</g>
</svg>