<?xml version="1.0" encoding="UTF-8"?>
<svg width="22px" height="24px" viewBox="0 0 22 24" version="1.1" xmlns="http://www.w3.org/2000/svg" xmlns:xlink="http://www.w3.org/1999/xlink">
    <title>ic/identity</title>
    <g id="ic/identity" stroke="none" stroke-width="1" fill="none" fill-rule="evenodd">
        <path d="M13.75,0 C15.7542592,0 17.3912737,1.57236105 17.494802,3.55084143 L17.5,3.75 L17.5,6.9568309 C17.5,7.37104446 17.1642136,7.7068309 16.75,7.7068309 C16.3703042,7.7068309 16.056509,7.42467701 16.0068466,7.05860145 L16,6.9568309 L16,3.75 C16,2.55913601 15.0748384,1.58435508 13.9040488,1.50519081 L13.75,1.5 L1.5,1.5 L1.5,22 L13.75,22 C14.940864,22 15.9156449,21.0748384 15.9948092,19.9040488 L16,19.75 C16,19.3357864 16.3357864,19 16.75,19 C17.1642136,19 17.5,19.3357864 17.5,19.75 C17.5,21.7542592 15.9276389,23.3912737 13.9491586,23.494802 L13.75,23.5 L0,23.5 L0,0 L13.75,0 Z M20.75,8.8 C21.1642136,8.8 21.5,9.13578644 21.5,9.55 L21.5,9.55 L21.5,17.55 C21.5,17.9642136 21.1642136,18.3 20.75,18.3 L20.75,18.3 L7.75,18.3 C7.33578644,18.3 7,17.9642136 7,17.55 L7,17.55 L7,9.55 C7,9.13578644 7.33578644,8.8 7.75,8.8 L7.75,8.8 Z M20,10.299 L8.5,10.299 L8.5,16.799 L20,16.799 L20,10.299 Z M17.082,12.6502 C17.4398805,12.6502 17.73,12.9851698 17.73,13.398376 C17.73,13.7771483 17.486219,14.0901804 17.1699298,14.139722 L17.082,14.146552 L11.898,14.146552 C11.5401195,14.146552 11.25,13.8115822 11.25,13.398376 C11.25,13.0196037 11.493781,12.7065716 11.8100702,12.65703 L11.898,12.6502 L17.082,12.6502 Z M11.720816,4.982368 C12.1340222,4.982368 12.468992,5.31733781 12.468992,5.730544 C12.468992,6.10931635 12.1875243,6.42234839 11.8223391,6.47189003 L11.720816,6.47872 L5.735408,6.47872 C5.32220181,6.47872 4.987232,6.14375019 4.987232,5.730544 C4.987232,5.35177165 5.26869968,5.03873961 5.63388495,4.98919797 L5.735408,4.982368 L11.720816,4.982368 Z" id="fill" fill="#009DE0"></path>
    </g>
</svg>