<?xml version="1.0" encoding="UTF-8"?>
<svg width="24px" height="24px" viewBox="0 0 24 24" version="1.1" xmlns="http://www.w3.org/2000/svg"
	xmlns:xlink="http://www.w3.org/1999/xlink">
	<title>ic/messages</title>
	<g id="ic/messages" stroke="none" stroke-width="1" fill="none" fill-rule="evenodd">
		<path
			d="M22,1.25 C22.4142136,1.25 22.75,1.58578644 22.75,2 L22.75,2 L22.75,18 C22.75,18.4142136 22.4142136,18.75 22,18.75 L22,18.75 L10.77,18.75 L10.7709961,22 C10.7709961,22.6330113 10.0459393,22.9666561 9.56788755,22.598293 L9.56788755,22.598293 L9.49066601,22.5303301 L5.71,18.75 L2,18.75 C1.62030423,18.75 1.30650904,18.4678461 1.25684662,18.1017706 L1.25684662,18.1017706 L1.25,18 L1.25,2 C1.25,1.58578644 1.58578644,1.25 2,1.25 L2,1.25 Z M21.25,2.75 L2.75,2.75 L2.75,17.25 L6.02099609,17.25 C6.18012599,17.25 6.33404184,17.3005713 6.46125696,17.3928138 L6.46125696,17.3928138 L6.55132618,17.4696699 L9.27,20.188 L9.27099609,18 C9.27099609,17.6203042 9.55314998,17.306509 9.91922554,17.2568466 L9.91922554,17.2568466 L10.0209961,17.25 L21.25,17.25 L21.25,2.75 Z M17,11.25 C17.4142136,11.25 17.75,11.5857864 17.75,12 C17.75,12.3796958 17.4678461,12.693491 17.1017706,12.7431534 L17,12.75 L7,12.75 C6.58578644,12.75 6.25,12.4142136 6.25,12 C6.25,11.6203042 6.53215388,11.306509 6.89822944,11.2568466 L7,11.25 L17,11.25 Z M17,7.25 C17.4142136,7.25 17.75,7.58578644 17.75,8 C17.75,8.37969577 17.4678461,8.69349096 17.1017706,8.74315338 L17,8.75 L7,8.75 C6.58578644,8.75 6.25,8.41421356 6.25,8 C6.25,7.62030423 6.53215388,7.30650904 6.89822944,7.25684662 L7,7.25 L17,7.25 Z"
			id="fill" fill="#FFFFFF" fill-rule="nonzero"></path>
	</g>
</svg>