<?xml version="1.0" encoding="UTF-8"?>
<svg width="24px" height="24px" viewBox="0 0 24 24" version="1.1" xmlns="http://www.w3.org/2000/svg" xmlns:xlink="http://www.w3.org/1999/xlink">
    <title>ic/notes</title>
    <g id="ic/notes" stroke="none" stroke-width="1" fill="none" fill-rule="evenodd">
        <path d="M22,5.25 C22.3796958,5.25 22.693491,5.53215388 22.7431534,5.89822944 L22.75,6 L22.75,22 C22.75,22.3796958 22.4678461,22.693491 22.1017706,22.7431534 L22,22.75 L6,22.75 C5.58578644,22.75 5.25,22.4142136 5.25,22 C5.25,21.6203042 5.53215388,21.306509 5.89822944,21.2568466 L6,21.25 L21.25,21.25 L21.25,6 C21.25,5.62030423 21.5321539,5.30650904 21.8982294,5.25684662 L22,5.25 Z M18,1.25 C18.4142136,1.25 18.75,1.58578644 18.75,2 L18.75,2 L18.75,18 C18.75,18.4142136 18.4142136,18.75 18,18.75 L18,18.75 L2,18.75 C1.58578644,18.75 1.25,18.4142136 1.25,18 L1.25,18 L1.25,2 C1.25,1.58578644 1.58578644,1.25 2,1.25 L2,1.25 Z M17.25,2.75 L2.75,2.75 L2.75,17.25 L17.25,17.25 L17.25,2.75 Z M9.30444336,9.25 C9.71865692,9.25 10.0544434,9.58578644 10.0544434,10 C10.0544434,10.3796958 9.77228948,10.693491 9.40621392,10.7431534 L9.30444336,10.75 L6.30444336,10.75 C5.8902298,10.75 5.55444336,10.4142136 5.55444336,10 C5.55444336,9.62030423 5.83659724,9.30650904 6.2026728,9.25684662 L6.30444336,9.25 L9.30444336,9.25 Z M13.8044434,5.25 C14.2186569,5.25 14.5544434,5.58578644 14.5544434,6 C14.5544434,6.37969577 14.2722895,6.69349096 13.9062139,6.74315338 L13.8044434,6.75 L6.30444336,6.75 C5.8902298,6.75 5.55444336,6.41421356 5.55444336,6 C5.55444336,5.62030423 5.83659724,5.30650904 6.2026728,5.25684662 L6.30444336,5.25 L13.8044434,5.25 Z" id="fill" fill="#7C7C7C" fill-rule="nonzero"></path>
    </g>
</svg>