<?xml version="1.0" encoding="UTF-8"?>
<svg width="24px" height="24px" viewBox="0 0 24 24" version="1.1" xmlns="http://www.w3.org/2000/svg" xmlns:xlink="http://www.w3.org/1999/xlink">
    <title>ic/once-offpayments</title>
    <g id="ic/once-offpayments" stroke="none" stroke-width="1" fill="none" fill-rule="evenodd">
        <rect id="Bounds" x="0" y="0" width="24" height="24"></rect>
        <path d="M22,4.25 C22.4142136,4.25 22.75,4.58578644 22.75,5 L22.75,5 L22.75,19 C22.75,19.4142136 22.4142136,19.75 22,19.75 L22,19.75 L2,19.75 C1.58578644,19.75 1.25,19.4142136 1.25,19 L1.25,19 L1.25,12 C1.25,11.5857864 1.58578644,11.25 2,11.25 L2,11.25 L15.189,11.25 L13.4980716,9.55873178 C13.231805,9.29246522 13.207599,8.87580153 13.4254535,8.58219004 L13.4980716,8.49807161 C13.7909648,8.20517839 14.2658386,8.20517839 14.5587318,8.49807161 L14.5587318,8.49807161 L17.5303301,11.4696699 C17.8232233,11.7625631 17.8232233,12.2374369 17.5303301,12.5303301 L17.5303301,12.5303301 L14.5289873,15.5316729 C14.2360941,15.8245661 13.7612204,15.8245661 13.4683271,15.5316729 C13.1754339,15.2387796 13.1754339,14.7639059 13.4683271,14.4710127 L13.4683271,14.4710127 L15.189,12.75 L2.75,12.75 L2.75,18.25 L21.25,18.25 L21.25,5.75 L2.75,5.75 L2.75,8 C2.75,8.41421356 2.41421356,8.75 2,8.75 C1.58578644,8.75 1.25,8.41421356 1.25,8 L1.25,8 L1.25,5 C1.25,4.58578644 1.58578644,4.25 2,4.25 L2,4.25 Z" id="fill" fill="#7C7C7C" fill-rule="nonzero"></path>
    </g>
</svg>