<svg width="24" height="24" viewBox="0 0 24 24" fill="none" xmlns="http://www.w3.org/2000/svg">
	<path
		d="M2.10026 12.6961C2.10026 7.21931 6.5401 2.77946 12.0169 2.77946C13.6217 2.77946 15.1682 3.16239 16.5505 3.87402L16.0043 2.238C15.8839 1.8779 16.052 1.49083 16.3834 1.32766L16.4778 1.2889C16.8379 1.16851 17.2249 1.33661 17.3881 1.66806L17.4269 1.76241L18.6643 5.46381C18.6672 5.47193 18.6699 5.4801 18.6725 5.4883L18.9064 6.18791L18.2082 6.42144C18.2001 6.42434 18.1918 6.42709 18.1836 6.42969L14.7712 7.57115C14.3783 7.70255 13.9534 7.49063 13.822 7.09781C13.7015 6.73772 13.8696 6.35063 14.201 6.1874L14.2953 6.14862L16.3317 5.46769C15.045 4.69766 13.5638 4.27946 12.0169 4.27946C7.36853 4.27946 3.60026 8.04774 3.60026 12.6961C3.60026 17.3445 7.36853 21.1128 12.0169 21.1128C15.2175 21.1128 18.0963 19.3108 19.5227 16.5088C20.1187 15.3381 20.4336 14.0405 20.4336 12.6961C20.4336 12.2819 20.7694 11.9461 21.1836 11.9461C21.5978 11.9461 21.9336 12.2819 21.9336 12.6961C21.9336 14.2784 21.5621 15.809 20.8594 17.1893C19.1795 20.4895 15.7873 22.6128 12.0169 22.6128C6.5401 22.6128 2.10026 18.173 2.10026 12.6961Z"
		fill="#009DE0" />
	<path
		d="M19 11.75C19 12.1297 18.7178 12.4435 18.3518 12.4932L18.25 12.5H13V17.75C13 18.1297 12.7178 18.4435 12.3518 18.4932L12.25 18.5C11.8703 18.5 11.5565 18.2178 11.5068 17.8518L11.5 17.75V11.75C11.5 11.3703 11.7822 11.0565 12.1482 11.0068L12.25 11H18.25C18.6642 11 19 11.3358 19 11.75Z"
		fill="#009DE0" />
</svg>