<?xml version="1.0" encoding="UTF-8"?>
<svg width="24px" height="24px" viewBox="0 0 24 24" version="1.1" xmlns="http://www.w3.org/2000/svg" xmlns:xlink="http://www.w3.org/1999/xlink">
    <title>ic/products/savings</title>
    <g id="ic/products/savings" stroke="none" stroke-width="1" fill="none" fill-rule="evenodd">
        <g id="2)-Save---1.5px-(24px)" fill="#00486D">
            <path d="M12.536,23.71136 L9.07119,23.71136 C8.63123442,23.6841382 8.28063993,23.3331276 8.25394,22.89314 L8.25394,10.34606 C8.28063943,9.9060705 8.63123281,9.55505671 9.07119,9.52783 L12.536,9.52783 C12.9761591,9.55498208 13.3270779,9.90590092 13.35423,10.34606 L13.35423,22.89314 C13.3270774,23.3332971 12.9761575,23.6842128 12.536,23.71136 Z M9.75012,22.21518 L11.858,22.21518 L11.858,11.024 L9.75012,11.024 L9.75012,22.21518 Z M5.94343,23.725 L2.47864,23.725 C2.03868639,23.6977738 1.68809428,23.3467656 1.66139,22.90678 L1.66139,14.99532 C1.68809428,14.5553344 2.03868639,14.2043262 2.47864,14.1771 L5.94343,14.1771 C6.38358747,14.2042472 6.73450742,14.5551629 6.76166,14.99532 L6.76166,22.90678 C6.73450742,23.3469371 6.38358747,23.6978528 5.94343,23.725 L5.94343,23.725 Z M3.15757,22.22882 L5.26547,22.22882 L5.26547,15.67328 L3.15757,15.67328 L3.15757,22.22882 Z M22.14214,4.66851 L20.33121,2.89868 L17.83563,0.45965 C17.5836827,0.213451177 17.1812573,0.213451177 16.92931,0.45965 L14.43379,2.89865 L12.62286,4.66851 C12.4343693,4.85275071 12.3761767,5.13276536 12.4756526,5.37685127 C12.5751286,5.62093717 12.8124719,5.78050766 13.07605,5.78051 L14.82993,5.78051 L14.82993,7.41017 C14.82993,7.42673 14.83093,7.44329 14.83193,7.4618 L14.83193,22.90286 C14.8315628,23.3555351 15.1974783,23.7231947 15.65015,23.72498 L19.11495,23.72498 C19.5676217,23.7231947 19.9335372,23.3555351 19.93317,22.90286 L19.93317,7.46277 C19.93417,7.44427 19.93517,7.42677 19.93517,7.41017 L19.93517,5.78054 L21.68905,5.78054 C21.9526184,5.78049951 22.1899328,5.62090864 22.289384,5.37682308 C22.3888352,5.13273753 22.330629,4.8527386 22.14214,4.66851 Z" id="Shape"></path>
        </g>
    </g>
</svg>