<?xml version="1.0" encoding="UTF-8"?>
<svg width="24px" height="24px" viewBox="0 0 24 24" version="1.1" xmlns="http://www.w3.org/2000/svg" xmlns:xlink="http://www.w3.org/1999/xlink">
    <title>ic/search</title>
    <g id="ic/search" stroke="none" stroke-width="1" fill="none" fill-rule="evenodd">
        <path d="M8.5,0.25 C13.0563492,0.25 16.75,3.94365081 16.75,8.5 C16.75,10.5078905 16.0326982,12.3482463 14.8403658,13.7787961 L22.5233873,21.4627272 C22.8162806,21.7556204 22.8162806,22.2304941 22.5233873,22.5233873 C22.2571208,22.7896539 21.8404571,22.81386 21.5468456,22.5960055 L21.4627272,22.5233873 L13.7787961,14.8403658 C12.3482463,16.0326982 10.5078905,16.75 8.5,16.75 C3.94365081,16.75 0.25,13.0563492 0.25,8.5 C0.25,3.94365081 3.94365081,0.25 8.5,0.25 Z M8.5,1.75 C4.77207794,1.75 1.75,4.77207794 1.75,8.5 C1.75,12.2279221 4.77207794,15.25 8.5,15.25 C12.2279221,15.25 15.25,12.2279221 15.25,8.5 C15.25,4.77207794 12.2279221,1.75 8.5,1.75 Z" id="fill" fill="#7C7C7C" fill-rule="nonzero"></path>
    </g>
</svg>