<svg width="23" height="22" viewBox="0 0 23 22" fill="none" xmlns="http://www.w3.org/2000/svg">
	<path
		d="M14.7197 16.9697C14.4268 17.2626 14.4268 17.7374 14.7197 18.0303C15.0126 18.3232 15.4874 18.3232 15.7803 18.0303L18.7779 15.0328C18.7829 15.0278 18.7878 15.0228 18.7926 15.0178C18.7955 15.0147 18.7984 15.0116 18.8013 15.0085L18.8069 15.0023C18.8643 14.9389 18.9089 14.8679 18.9407 14.7929C18.9785 14.7037 18.9996 14.6058 19 14.5029L19 14.5L19 14.4922C18.999 14.3956 18.9797 14.3033 18.9454 14.2186C18.9088 14.128 18.8538 14.0431 18.7803 13.9697L15.7803 10.9697C15.4874 10.6768 15.0126 10.6768 14.7197 10.9697C14.4268 11.2626 14.4268 11.7374 14.7197 12.0303L16.4394 13.75H11.25C10.8358 13.75 10.5 14.0858 10.5 14.5C10.5 14.9142 10.8358 15.25 11.25 15.25H16.4393L14.7197 16.9697Z"
		fill="#009DE0" />
	<path fill-rule="evenodd" clip-rule="evenodd"
		d="M3.36555 0.25C1.92102 0.25 0.75 1.42102 0.75 2.86555V3.13445C0.75 3.86493 1.04945 4.52546 1.5323 5C1.04945 5.47453 0.75 6.13507 0.75 6.86555V7.13445C0.75 7.86493 1.04945 8.52546 1.5323 9C1.04945 9.47453 0.75 10.1351 0.75 10.8655V11.1344C0.75 11.8649 1.04945 12.5255 1.5323 13C1.04945 13.4745 0.75 14.1351 0.75 14.8655V15.1344C0.75 15.8649 1.04945 16.5255 1.5323 17C1.04945 17.4745 0.75 18.1351 0.75 18.8655V19.1344C0.75 20.579 1.92102 21.75 3.36555 21.75H13.6345C13.775 21.75 13.913 21.7389 14.0476 21.7175C14.2789 21.739 14.5132 21.75 14.75 21.75C18.8921 21.75 22.25 18.3921 22.25 14.25C22.25 10.6216 19.6734 7.59493 16.25 6.90003V6.86555C16.25 6.13507 15.9505 5.47453 15.4677 5C15.9505 4.52546 16.25 3.86492 16.25 3.13445V2.86555C16.25 1.42102 15.079 0.25 13.6345 0.25H3.36555ZM8.11505 17.75C8.63468 18.733 9.36639 19.5867 10.2493 20.25H3.36555C2.74945 20.25 2.25 19.7505 2.25 19.1344V18.8655C2.25 18.2494 2.74945 17.75 3.36555 17.75H8.11505ZM7.25 14.25C7.25 14.9426 7.34388 15.6133 7.51961 16.25H3.36555C2.74945 16.25 2.25 15.7505 2.25 15.1344V14.8655C2.25 14.2494 2.74945 13.75 3.36555 13.75H7.2664C7.25552 13.9153 7.25 14.082 7.25 14.25ZM8.74945 9.75C8.19415 10.4893 7.77228 11.3345 7.51962 12.25H3.36555C2.74945 12.25 2.25 11.7505 2.25 11.1344V10.8655C2.25 10.2494 2.74945 9.75 3.36555 9.75H8.74945ZM14.7441 6.75C13.0576 6.75131 11.5014 7.30923 10.2493 8.24999H3.36555C2.74945 8.24999 2.25 7.75055 2.25 7.13445V6.86555C2.25 6.24945 2.74945 5.75 3.36555 5.75H13.6345C14.2115 5.75 14.6863 6.1882 14.7441 6.75ZM2.25 2.86555C2.25 2.24945 2.74945 1.75 3.36555 1.75H13.6345C14.2506 1.75 14.75 2.24945 14.75 2.86555V3.13445C14.75 3.75055 14.2506 4.24999 13.6345 4.24999H3.36555C2.74945 4.24999 2.25 3.75055 2.25 3.13445V2.86555ZM14.75 20.25C18.0637 20.25 20.75 17.5637 20.75 14.25C20.75 10.9363 18.0637 8.25 14.75 8.25C11.4363 8.25 8.75 10.9363 8.75 14.25C8.75 17.5637 11.4363 20.25 14.75 20.25Z"
		fill="#009DE0" />
</svg>