<svg width="24" height="24" viewBox="0 0 24 24" fill="none" xmlns="http://www.w3.org/2000/svg">
<path fill-rule="evenodd" clip-rule="evenodd" d="M12.0001 15.75C14.0712 15.75 15.7501 14.0711 15.7501 12C15.7501 9.92893 14.0712 8.25 12.0001 8.25C9.92903 8.25 8.25009 9.92893 8.25009 12C8.25009 14.0711 9.92903 15.75 12.0001 15.75ZM12.0001 14.25C10.7575 14.25 9.75009 13.2426 9.75009 12C9.75009 10.7574 10.7575 9.75 12.0001 9.75C13.2427 9.75 14.2501 10.7574 14.2501 12C14.2501 13.2426 13.2427 14.25 12.0001 14.25Z" fill="white"/>
<path fill-rule="evenodd" clip-rule="evenodd" d="M20.7917 11.1909C21.964 10.5351 22.3866 9.04818 21.7392 7.86753L21.7239 7.83999L20.3848 5.48339C19.7171 4.30842 18.2281 3.90133 17.0616 4.57765L17.045 4.58738L16.8611 4.69631C16.5225 4.46709 16.1685 4.26228 15.8018 4.08338V3.69811C15.8018 2.34773 14.715 1.25 13.3706 1.25H10.6802C9.33583 1.25 8.24905 2.34773 8.24905 3.69811V4.02049C7.87831 4.20133 7.52064 4.40866 7.17872 4.6409L6.93198 4.49931C5.76247 3.82819 4.27532 4.24189 3.6128 5.41979L2.24675 7.85859C1.59108 9.02918 1.99495 10.5144 3.15386 11.1844L3.27557 11.2548C3.23992 11.7112 3.2401 12.1698 3.27609 12.6262L2.95657 12.8138C1.80288 13.4915 1.40888 14.9784 2.0714 16.1443L3.43436 18.5429C4.09377 19.7033 5.5568 20.1172 6.7204 19.4697L7.03385 19.2953C7.40065 19.5522 7.7863 19.7801 8.1874 19.977V20.3019C8.1874 21.6523 9.27418 22.75 10.6186 22.75H13.3089C14.6533 22.75 15.7401 21.6523 15.7401 20.3019V19.975C16.1544 19.7706 16.5521 19.5331 16.9294 19.2647L17.1921 19.4272C18.3392 20.1364 19.8391 19.7719 20.5395 18.6162L20.5608 18.5804L20.5797 18.5474L21.9362 16.1256C22.5844 14.9685 22.1979 13.5008 21.0633 12.8199L20.6457 12.5693C20.6781 12.1373 20.6788 11.7035 20.6479 11.2714L20.7917 11.1909ZM20.0593 9.88184L19.0436 10.4501L19.109 10.9535C19.1916 11.5893 19.1911 12.2336 19.1075 12.8693L19.0433 13.3571L20.2914 14.1061C20.7294 14.3689 20.8801 14.9416 20.6275 15.3926L19.2731 17.8106L19.2651 17.8247L19.2545 17.8425C18.9876 18.2829 18.4176 18.4214 17.9809 18.1514L16.8284 17.4388L16.4148 17.7731C15.8919 18.1959 15.3141 18.5425 14.6981 18.803L14.2401 18.9966V20.3019C14.2401 20.8272 13.8215 21.25 13.3089 21.25H10.6186C10.106 21.25 9.6874 20.8272 9.6874 20.3019V18.9963L9.22798 18.8032C8.63053 18.5522 8.06875 18.2201 7.5578 17.8161L7.16523 17.5056L5.99103 18.159C5.54826 18.4054 4.99207 18.248 4.73851 17.8018L3.37555 15.4033C3.11736 14.9489 3.27109 14.3687 3.71627 14.1072L4.8846 13.421L4.81653 12.9255C4.72656 12.2707 4.72644 11.6062 4.81617 10.9513L4.88455 10.4523L3.90459 9.88579C3.45747 9.62731 3.2999 9.04784 3.55544 8.59163L4.91936 6.15661L4.92051 6.15456C5.17496 5.70218 5.74031 5.5449 6.1854 5.80032L7.28541 6.43155L7.68189 6.12715C8.17596 5.74782 8.7157 5.43501 9.28778 5.19639L9.74905 5.00399V3.69811C9.74905 3.17281 10.1676 2.75 10.6802 2.75H13.3706C13.8832 2.75 14.3018 3.17281 14.3018 3.69811V5.06688L14.763 5.25928C15.3335 5.49724 15.8719 5.80898 16.3648 6.18689L16.7672 6.49534L17.8064 5.87973L17.817 5.87356C18.2579 5.61793 18.8239 5.77268 19.0806 6.22447L20.417 8.57611L20.4268 8.59371C20.6763 9.0489 20.5115 9.6289 20.0593 9.88184Z" fill="white"/>
</svg>
