<?xml version="1.0" encoding="UTF-8"?>
<svg width="24px" height="24px" viewBox="0 0 24 24" version="1.1" xmlns="http://www.w3.org/2000/svg" xmlns:xlink="http://www.w3.org/1999/xlink">
    <title>ic/stopcard</title>
    <g id="ic/stopcard" stroke="none" stroke-width="1" fill="none" fill-rule="evenodd">
        <path d="M5,23.75 C4.62030423,23.75 4.30650904,23.4678461 4.25684662,23.1017706 L4.25,23 L4.25,5.311 L1.46966991,2.53033009 C1.20340335,2.26406352 1.1791973,1.84739984 1.39705176,1.55378835 L1.46966991,1.46966991 C1.76256313,1.1767767 2.23743687,1.1767767 2.53033009,1.46966991 L2.53033009,1.46966991 L22.5303301,21.4696699 C22.8232233,21.7625631 22.8232233,22.2374369 22.5303301,22.5303301 C22.2374369,22.8232233 21.7625631,22.8232233 21.4696699,22.5303301 L21.4696699,22.5303301 L19.75,20.811 L19.75,23 C19.75,23.3796958 19.4678461,23.693491 19.1017706,23.7431534 L19,23.75 L19,23.75 L5,23.75 Z M5.75,6.811 L5.75,22.25 L18.25,22.25 L18.25,19.311 L14.189,15.25 L8.74762458,15.25 C8.36792881,15.25 8.05413362,14.9678461 8.00447119,14.6017706 L7.99762458,14.5 C7.99762458,14.0857864 8.33341102,13.75 8.74762458,13.75 L8.74762458,13.75 L12.689,13.75 L5.75,6.811 Z M11.4917124,16.25 C11.905926,16.25 12.2417124,16.5857864 12.2417124,17 C12.2417124,17.4142136 11.905926,17.75 11.4917124,17.75 L11.4917124,17.75 L8.74762458,17.75 C8.33341102,17.75 7.99762458,17.4142136 7.99762458,17 C7.99762458,16.5857864 8.33341102,16.25 8.74762458,16.25 L8.74762458,16.25 Z M19,0.25 C19.3796958,0.25 19.693491,0.532153882 19.7431534,0.898229443 L19.75,1 L19.75,15.0771919 C19.75,15.4914055 19.4142136,15.8271919 19,15.8271919 C18.6203042,15.8271919 18.306509,15.545038 18.2568466,15.1789624 L18.25,15.0771919 L18.25,1.75 L5.24469866,1.75 C4.8304851,1.75 4.49469866,1.41421356 4.49469866,1 C4.49469866,0.620304234 4.77685254,0.306509039 5.1429281,0.256846616 L5.24469866,0.25 L19,0.25 Z M10.0957822,5.0191212 L10.0957822,6.13968204 C10.0957822,6.65798048 10.5365143,7.07578426 11.0752801,7.07578426 L11.0752801,7.07578426 L12.5750055,7.07578426 C13.0059972,7.07578426 13.358541,7.41516794 13.358541,7.82994781 L13.358541,7.82994781 L13.358541,9 L13.358541,9 L12.1969718,9 L8.72745629,5.53949667 C9.09358016,5.24027529 9.57095003,5.04787062 10.0957822,5.0191212 L10.0957822,5.0191212 Z M13.766908,5 C14.995051,5 16,5.89658978 16,6.99235454 C16,7.96958197 15.2008587,8.78775165 14.1571571,8.95376439 L14.1571571,8.95376439 L14.1571571,7.85598369 C14.1571571,7.33738285 13.7164249,6.91312806 13.1776591,6.91312806 L13.1776591,6.91312806 L11.6733253,6.91312806 C11.2423336,6.91312806 10.889685,6.57636511 10.889685,6.16168603 L10.889685,6.16168603 L10.889685,5 Z" id="fill" fill="#009DE0" fill-rule="nonzero"></path>
    </g>
</svg>