<?xml version="1.0" encoding="UTF-8"?>
<svg width="212px" height="154px" viewBox="0 0 212 154" version="1.1" xmlns="http://www.w3.org/2000/svg" xmlns:xlink="http://www.w3.org/1999/xlink">
    <title>DA22AF66-311B-4389-BEBA-F439C7273457</title>
    <g id="Icons-&amp;-Illustrations" stroke="none" stroke-width="1" fill="none" fill-rule="evenodd">
        <g id="General---Illustrations---Examples---nav" transform="translate(-586.000000, -1510.000000)">
            <g id="ill-/-📱track-2-/-upload" transform="translate(587.000000, 1511.000000)">
                <g id="Bounds" opacity="0" stroke="#F5F5F5">
                    <rect x="20" y="16" width="170" height="120"></rect>
                    <rect x="0" y="0" width="210" height="152"></rect>
                </g>
                <g id="Documnet" transform="translate(55.000000, 16.000000)">
                    <rect id="Rectangle" fill="#F5F5F5" transform="translate(50.000000, 59.500000) rotate(-8.000000) translate(-50.000000, -59.500000) " x="8" y="6" width="84" height="107" rx="1"></rect>
                    <path d="M9,5.5 L91,5.5 C91.8284271,5.5 92.5,6.17157288 92.5,7 L92.5,112 C92.5,112.828427 91.8284271,113.5 91,113.5 L9,113.5 C8.17157288,113.5 7.5,112.828427 7.5,112 L7.5,7 C7.5,6.17157288 8.17157288,5.5 9,5.5 Z M9,6.5 C8.72385763,6.5 8.5,6.72385763 8.5,7 L8.5,112 C8.5,112.276142 8.72385763,112.5 9,112.5 L91,112.5 C91.2761424,112.5 91.5,112.276142 91.5,112 L91.5,7 C91.5,6.72385763 91.2761424,6.5 91,6.5 L9,6.5 Z" id="Rectangle" fill="#E1E1E1" fill-rule="nonzero" transform="translate(50.000000, 59.500000) rotate(-8.000000) translate(-50.000000, -59.500000) "></path>
                    <rect id="Rectangle" fill="#FFFFFF" x="8" y="6" width="84" height="107" rx="1"></rect>
                    <path d="M9,5.5 L91,5.5 C91.8284271,5.5 92.5,6.17157288 92.5,7 L92.5,112 C92.5,112.828427 91.8284271,113.5 91,113.5 L9,113.5 C8.17157288,113.5 7.5,112.828427 7.5,112 L7.5,7 C7.5,6.17157288 8.17157288,5.5 9,5.5 Z M9,6.5 C8.72385763,6.5 8.5,6.72385763 8.5,7 L8.5,112 C8.5,112.276142 8.72385763,112.5 9,112.5 L91,112.5 C91.2761424,112.5 91.5,112.276142 91.5,112 L91.5,7 C91.5,6.72385763 91.2761424,6.5 91,6.5 L9,6.5 Z" id="Rectangle" fill="#4E6066" fill-rule="nonzero"></path>
                    <rect id="Rectangle" fill="#F5F5F5" x="16" y="42" width="68" height="17" rx="1"></rect>
                    <rect id="Rectangle" fill="#F5F5F5" x="16" y="73" width="68" height="6" rx="1"></rect>
                    <rect id="Rectangle" fill="#F5F5F5" x="16" y="82" width="68" height="3" rx="1"></rect>
                    <rect id="Rectangle" fill="#F5F5F5" x="16" y="88" width="68" height="3" rx="1"></rect>
                    <rect id="Rectangle" fill="#F5F5F5" x="16" y="63" width="68" height="3" rx="1"></rect>
                    <g id="Group" transform="translate(16.000000, 96.000000)" fill="#E63934">
                        <rect id="Rectangle" x="0" y="0" width="16" height="2" rx="1"></rect>
                    </g>
                </g>
                <rect id="Rectangle" fill="#00486D" x="95" y="32" width="20" height="20" rx="10"></rect>
                <path d="M105,36.9 C105.331371,36.9 105.6,37.1686292 105.6,37.5 L105.6,37.5 L105.599,41.4 L109.5,41.4 C109.798234,41.4 110.045647,41.6175896 110.092147,41.9026769 L110.1,42 C110.1,42.3313708 109.831371,42.6 109.5,42.6 L109.5,42.6 L105.599,42.599 L105.6,46.5 C105.6,46.7982338 105.38241,47.0456468 105.097323,47.092147 L105,47.1 C104.668629,47.1 104.4,46.8313708 104.4,46.5 L104.4,46.5 L104.399,42.599 L100.5,42.6 C100.201766,42.6 99.9543532,42.3824104 99.907853,42.0973231 L99.9,42 C99.9,41.6686292 100.168629,41.4 100.5,41.4 L100.5,41.4 L104.399,41.4 L104.4,37.5 C104.4,37.2017662 104.61759,36.9543532 104.902677,36.907853 Z" id="Combined-Shape" fill="#FFFFFF" fill-rule="nonzero"></path>
            </g>
        </g>
    </g>
</svg>