<?xml version="1.0" encoding="UTF-8"?>
<svg width="24px" height="24px" viewBox="0 0 24 24" version="1.1" xmlns="http://www.w3.org/2000/svg" xmlns:xlink="http://www.w3.org/1999/xlink">
    <title>ic/show</title>
    <g id="ic/show" stroke="none" stroke-width="1" fill="none" fill-rule="evenodd">
        <path d="M8.13755889,5.03539845 C13.3106228,2.92336489 18.4702568,5.06681203 23.5056495,11.3084007 C23.8317993,11.7112851 23.8311306,12.3007609 23.5042101,12.7055865 C21.7690431,14.8417127 20.0153481,16.5017941 18.2518079,17.6723238 C17.3055363,18.3004008 16.3563375,18.78759 15.4055242,19.1318993 C14.2697164,19.543199 13.1331744,19.75 12.0001786,19.75 C8.14140727,19.75 4.27608469,17.3589907 0.496292662,12.7057239 C0.168775883,12.3033175 0.168156203,11.7138403 0.493957978,11.3082736 C2.00189694,9.43955146 3.51936399,7.93835431 5.04545253,6.80901956 C5.97995845,6.11746728 6.9182862,5.56491705 7.86041825,5.15261493 L7.86041825,5.15261493 Z M21.8221784,11.6258426 C17.2625412,6.24310937 12.8490665,4.60679893 8.46179261,6.52678701 C7.62625067,6.89244245 6.78466656,7.38802354 5.93773196,8.01477137 C4.52115551,9.06306508 3.09338204,10.4755303 1.66233338,12.2489628 L1.86112961,12.0048114 L2.25564775,12.4722331 C5.3762699,16.1009631 8.46128994,18.0137519 11.4345467,18.2294367 L11.7219298,18.2450121 L12.0001786,18.25 C12.9557272,18.25 13.9198564,18.0745706 14.8947979,17.7215239 C15.7295738,17.4192342 16.5725756,16.986552 17.4222928,16.422562 C19.0497562,15.3423517 20.6947786,13.7851419 22.3385698,11.7615113 L22.2951296,11.8128114 L22.137,12.004 Z M12,7.25 C14.6233526,7.25 16.75,9.37664744 16.75,12 C16.75,14.6233526 14.6233526,16.75 12,16.75 C9.37664744,16.75 7.25,14.6233526 7.25,12 C7.25,9.37664744 9.37664744,7.25 12,7.25 Z M12,8.75 C10.2050746,8.75 8.75,10.2050746 8.75,12 C8.75,13.7949254 10.2050746,15.25 12,15.25 C13.7949254,15.25 15.25,13.7949254 15.25,12 C15.25,10.2050746 13.7949254,8.75 12,8.75 Z" id="fill" fill="#009DE0" fill-rule="nonzero"></path>
    </g>
</svg>